<svg width="32" height="32" viewBox="0 0 32 32" fill="none" xmlns="http://www.w3.org/2000/svg">
  <!-- White circular background -->
  <circle cx="16" cy="16" r="16" fill="#fff"/>
  
  <!-- Stacked time units of different scales - centered and fitted -->
  <!-- Year (largest) -->
  <rect x="6" y="22" width="20" height="3" rx="1.5" fill="#000"/>
  
  <!-- Months (medium) -->
  <rect x="6" y="17" width="4" height="2.5" rx="1" fill="#000"/>
  <rect x="11" y="17" width="4" height="2.5" rx="1" fill="#000"/>
  <rect x="16" y="17" width="4" height="2.5" rx="1" fill="#000"/>
  <rect x="21" y="17" width="5" height="2.5" rx="1" fill="#000"/>
  
  <!-- Weeks (smaller) -->
  <rect x="6" y="13" width="2.5" height="2" rx="1" fill="#000"/>
  <rect x="9.5" y="13" width="2.5" height="2" rx="1" fill="#000"/>
  <rect x="13" y="13" width="2.5" height="2" rx="1" fill="#000"/>
  <rect x="16.5" y="13" width="2.5" height="2" rx="1" fill="#000"/>
  <rect x="20" y="13" width="2.5" height="2" rx="1" fill="#000"/>
  <rect x="23.5" y="13" width="2.5" height="2" rx="1" fill="#000"/>
  
  <!-- Days (smallest) -->
  <rect x="7" y="8" width="1.2" height="1.5" rx="0.6" fill="#000"/>
  <rect x="9" y="8" width="1.2" height="1.5" rx="0.6" fill="#000"/>
  <rect x="11" y="8" width="1.2" height="1.5" rx="0.6" fill="#000"/>
  <rect x="13" y="8" width="1.2" height="1.5" rx="0.6" fill="#000"/>
  <rect x="15" y="8" width="1.2" height="1.5" rx="0.6" fill="#000"/>
  <rect x="17" y="8" width="1.2" height="1.5" rx="0.6" fill="#000"/>
  <rect x="19" y="8" width="1.2" height="1.5" rx="0.6" fill="#000"/>
  <rect x="21" y="8" width="1.2" height="1.5" rx="0.6" fill="#000"/>
  <rect x="23" y="8" width="1.2" height="1.5" rx="0.6" fill="#000"/>
  <rect x="25" y="8" width="1.2" height="1.5" rx="0.6" fill="#000"/>
</svg>